<svg xmlns="http://www.w3.org/2000/svg" viewBox="0 0 120 40" fill="none">
  <!-- Kuruvi bird symbol -->
  <g transform="translate(0, 4)">
    <path d="M16 2C12 2 8 5 8 10c0 3 1.5 5.5 4 7l-6 9h4l4-6c2 1 4 2 6 2s4-1 6-2l4 6h4l-6-9c2.5-1.5 4-4 4-7 0-5-4-8-8-8h-4z" fill="#60A5FA"/>
    <circle cx="12" cy="10" r="2" fill="#1E293B"/>
    <path d="M22 8c2-1 5-1 8 1" stroke="#60A5FA" stroke-width="2" stroke-linecap="round"/>
  </g>
  <!-- Kuruvi text -->
  <text x="40" y="28" font-family="Inter, system-ui, sans-serif" font-size="20" font-weight="600" fill="#F8FAFC">Kuruvi</text>
</svg>
